<svg width="249" height="264" viewBox="0 0 249 264" fill="none" xmlns="http://www.w3.org/2000/svg">
<path d="M243.808 176.304L215.747 151.443C213.074 149.054 211.564 145.697 211.564 142.17C211.564 138.643 213.074 135.286 215.747 132.897L243.808 108.035C248.398 103.996 249.851 97.7382 247.468 92.1629C245.203 86.8152 240.032 83.4586 234.222 83.4586C233.99 83.4586 233.699 83.4586 233.467 83.4586L205.289 84.8809C204.301 38.003 167.583 0 123.022 0C78.5186 0 41.8005 37.9461 40.8128 84.7671L15.1914 83.5155C9.09111 83.1742 3.51367 86.5876 1.13164 92.1629C-1.25039 97.7382 0.202067 103.996 4.79183 108.035L32.8533 132.897C35.5258 135.229 37.0364 138.643 37.0364 142.17C37.0364 145.697 35.5258 149.111 32.8533 151.443L4.79183 176.304C0.202067 180.343 -1.19229 186.601 1.13164 192.177C3.51367 197.752 9.03301 201.165 15.1914 200.881L52.9553 199.004C56.5574 198.833 60.0433 200.141 62.5997 202.645C65.156 205.148 66.4922 208.618 66.3179 212.088L64.4007 249.124C64.1102 255.155 67.538 260.559 73.2897 262.892C75.0908 263.631 77.008 263.973 78.8672 263.973C82.8179 263.973 86.6524 262.323 89.4992 259.308L114.83 231.773C117.27 229.156 120.698 227.62 124.3 227.62C127.902 227.62 131.33 229.099 133.77 231.773L159.101 259.308C163.226 263.802 169.559 265.224 175.31 262.892C181.004 260.559 184.49 255.155 184.199 249.124L182.282 212.088C182.108 208.561 183.444 205.091 186 202.645C188.557 200.141 191.985 198.833 195.645 199.004L233.409 200.881C239.509 201.165 245.086 197.809 247.468 192.177C249.851 186.601 248.398 180.343 243.808 176.304Z" fill="#F6E828"/>
<path d="M121.569 147.803C121.569 165.041 108.09 179.036 91.4738 179.036C74.8577 179.036 61.3789 165.041 61.3789 147.803C61.3789 130.565 74.8577 116.57 91.4738 116.57C108.09 116.57 121.569 130.565 121.569 147.803Z" fill="white"/>
<path d="M91.4176 179.888C74.3367 179.888 60.4512 165.495 60.4512 147.802C60.4512 130.109 74.3367 115.715 91.4176 115.715C108.498 115.715 122.384 130.109 122.384 147.802C122.384 165.495 108.498 179.888 91.4176 179.888ZM91.4176 117.365C75.2662 117.365 62.136 131.019 62.136 147.802C62.136 164.584 75.2662 178.238 91.4176 178.238C107.569 178.238 120.699 164.584 120.699 147.802C120.699 131.019 107.569 117.365 91.4176 117.365Z" fill="black"/>
<path d="M186.697 147.803C186.697 165.041 173.218 179.036 156.602 179.036C139.986 179.036 126.507 165.041 126.507 147.803C126.507 130.565 139.986 116.57 156.602 116.57C173.218 116.57 186.697 130.565 186.697 147.803Z" fill="white"/>
<path d="M156.602 179.888C139.521 179.888 125.636 165.495 125.636 147.802C125.636 130.109 139.521 115.715 156.602 115.715C173.683 115.715 187.569 130.109 187.569 147.802C187.51 165.495 173.625 179.888 156.602 179.888ZM156.602 117.365C140.451 117.365 127.321 131.019 127.321 147.802C127.321 164.584 140.451 178.238 156.602 178.238C172.753 178.238 185.884 164.584 185.884 147.802C185.884 131.019 172.753 117.365 156.602 117.365Z" fill="black"/>
<path d="M92.2304 160.204C91.7656 160.204 91.417 159.862 91.417 159.407V135.684C91.417 135.229 91.7656 134.887 92.2304 134.887C92.6952 134.887 93.0437 135.229 93.0437 135.684V159.407C93.1018 159.862 92.6952 160.204 92.2304 160.204Z" fill="black"/>
<path d="M155.789 160.204C155.324 160.204 154.976 159.862 154.976 159.407V135.684C154.976 135.229 155.324 134.887 155.789 134.887C156.254 134.887 156.602 135.229 156.602 135.684V159.407C156.602 159.862 156.254 160.204 155.789 160.204Z" fill="black"/>
</svg>
